<svg width="64" height="64" viewBox="0 0 64 64" fill="none" xmlns="http://www.w3.org/2000/svg">
  <rect width="64" height="64" rx="14" fill="#111827"/>
  <path d="M20 41V20h12.6c4.8 0 7.8 2.5 7.8 6.2 0 2.2-1.1 4-3.1 5 2.7.8 4.3 2.8 4.3 5.5 0 4-3.2 6.3-8.6 6.3H20Zm6.1-12.4h5.2c1.9 0 3-.9 3-2.4 0-1.6-1.1-2.4-3.1-2.4h-5.1v4.8Zm0 8.6h6.1c2.1 0 3.2-.9 3.2-2.6 0-1.7-1.1-2.6-3.3-2.6h-6v5.2Z" fill="#F9FAFB"/>
  <circle cx="45" cy="20" r="4" fill="#22C55E"/>
  <circle cx="49" cy="35" r="3" fill="#38BDF8"/>
  <path d="M43.5 23.5 48 32" stroke="#F9FAFB" stroke-width="2" stroke-linecap="round" opacity=".75"/>
</svg>
